<svg xmlns="http://www.w3.org/2000/svg">

    <symbol id="ellipse">
        <path  fill="rgb(25, 189, 154)"
 d="M18.000,-0.000 C27.941,-0.000 36.000,8.059 36.000,18.000 C36.000,27.941 27.941,36.000 18.000,36.000 C8.059,36.000 -0.000,27.941 -0.000,18.000 C-0.000,8.059 8.059,-0.000 18.000,-0.000 Z"/>    
    </symbol>
    <symbol id="arrow_down">
        <path d="M225.923,354.706c-8.098,0-16.195-3.092-22.369-9.263L9.27,151.157c-12.359-12.359-12.359-32.397,0-44.751   c12.354-12.354,32.388-12.354,44.748,0l171.905,171.915l171.906-171.909c12.359-12.354,32.391-12.354,44.744,0   c12.365,12.354,12.365,32.392,0,44.751L248.292,345.449C242.115,351.621,234.018,354.706,225.923,354.706z"/>
    </symbol>
    <symbol id="circle">
            <path fill-rule="evenodd"  fill="rgb(129, 134, 142)"
                  d="M26.500,0.093 C41.084,0.093 52.906,11.916 52.906,26.500 C52.906,41.083 41.084,52.906 26.500,52.906 C11.916,52.906 0.094,41.083 0.094,26.500 C0.094,11.916 11.916,0.093 26.500,0.093 Z"/>
         </symbol>
</svg>